<svg width="197" height="44" viewBox="0 0 197 44" fill="none" xmlns="http://www.w3.org/2000/svg">
<g clip-path="url(#clip0_1040_9288)">
<path d="M6.829 19.886L11.872 11.055L10.077 7.91901L0 7.91901L6.829 19.886Z" fill="#3DD2B4"/>
<path d="M38.491 29.607H48.541L60.915 7.922H50.862L38.491 29.607Z" fill="#723CDB"/>
<path d="M36.7791 26.6L41.8541 17.7L31.7531 0L21.6001 0L36.7791 26.6Z" fill="#723CDB"/>
<path d="M19.932 2.91295L24.957 11.723L18.604 22.869L23.672 31.7479L18.629 40.586L8.54297 22.8949L19.932 2.91295Z" fill="#723CDB"/>
<path d="M20.343 43.6211L28.338 29.6059H38.4901L30.495 43.6221L20.343 43.6211Z" fill="#723CDB"/>
</g>
<path d="M80.4002 29.9141C79.4035 29.9141 78.5667 29.7422 77.8897 29.3984C77.2315 29.0547 76.7331 28.52 76.3946 27.7943C76.0749 27.0686 75.915 26.1042 75.915 24.901V8H79.4129V24.4141C79.4129 25.1016 79.4788 25.6363 79.6104 26.0182C79.7608 26.4002 79.9677 26.6771 80.231 26.849C80.4943 27.0017 80.814 27.1068 81.1901 27.1641L82.4595 27.3359V29.9141H80.4002Z" fill="black"/>
<path d="M84.9888 12.0677C84.6315 12.0677 84.4529 11.8958 84.4529 11.5521V8.94531C84.4529 8.56337 84.6315 8.37239 84.9888 8.37239H87.6405C87.8097 8.37239 87.9319 8.42969 88.0072 8.54427C88.1012 8.65885 88.1482 8.79253 88.1482 8.94531V11.5521C88.1482 11.8958 87.979 12.0677 87.6405 12.0677H84.9888ZM84.5375 29.8568V14.5026H88.0354V29.8568H84.5375Z" fill="black"/>
<path d="M95.5383 29.8568L90.2632 14.5026H93.8457L97.6257 26.5625L101.49 14.5026H105.045L99.5439 29.8568H95.5383Z" fill="black"/>
<path d="M112.864 30C111.227 30 109.92 29.7708 108.943 29.3125C107.983 28.8542 107.288 28.0616 106.855 26.9349C106.423 25.7891 106.206 24.204 106.206 22.1797C106.206 20.1172 106.413 18.5226 106.827 17.3958C107.241 16.25 107.927 15.4479 108.886 14.9896C109.845 14.5312 111.143 14.3021 112.779 14.3021C114.227 14.3021 115.384 14.4549 116.249 14.7604C117.133 15.0469 117.772 15.572 118.167 16.3359C118.581 17.0807 118.787 18.1406 118.787 19.5156C118.787 20.4896 118.599 21.2726 118.223 21.8646C117.847 22.4375 117.302 22.8481 116.587 23.0964C115.891 23.3446 115.064 23.4688 114.105 23.4688H109.676C109.714 24.4236 109.836 25.1875 110.043 25.7604C110.268 26.3142 110.663 26.7153 111.227 26.9635C111.81 27.2118 112.657 27.3359 113.766 27.3359H118.336V29.4271C117.565 29.5799 116.747 29.7135 115.882 29.8281C115.036 29.9427 114.03 30 112.864 30ZM109.648 21.3203H113.766C114.424 21.3203 114.904 21.1962 115.205 20.9479C115.525 20.6806 115.684 20.2031 115.684 19.5156C115.684 18.8472 115.59 18.322 115.402 17.9401C115.214 17.5582 114.904 17.2908 114.472 17.138C114.039 16.9661 113.475 16.8802 112.779 16.8802C111.989 16.8802 111.369 17.0043 110.917 17.2526C110.466 17.5009 110.137 17.9497 109.93 18.599C109.742 19.2292 109.648 20.1363 109.648 21.3203Z" fill="black"/>
<path d="M124.466 29.8568L120.263 14.5026H123.845L126.694 26.5625L129.967 14.5026H132.9L136.172 26.5625L138.852 14.5026H142.435L138.288 29.8568H134.424L131.377 19.4583L128.246 29.8568H124.466Z" fill="black"/>
<path d="M150.273 30C148.637 30 147.33 29.7708 146.352 29.3125C145.393 28.8542 144.697 28.0616 144.265 26.9349C143.832 25.7891 143.616 24.204 143.616 22.1797C143.616 20.1172 143.823 18.5226 144.237 17.3958C144.65 16.25 145.337 15.4479 146.296 14.9896C147.255 14.5312 148.553 14.3021 150.189 14.3021C151.637 14.3021 152.793 14.4549 153.658 14.7604C154.542 15.0469 155.182 15.572 155.577 16.3359C155.99 17.0807 156.197 18.1406 156.197 19.5156C156.197 20.4896 156.009 21.2726 155.633 21.8646C155.257 22.4375 154.712 22.8481 153.997 23.0964C153.301 23.3446 152.474 23.4688 151.515 23.4688H147.086C147.123 24.4236 147.246 25.1875 147.453 25.7604C147.678 26.3142 148.073 26.7153 148.637 26.9635C149.22 27.2118 150.067 27.3359 151.176 27.3359H155.746V29.4271C154.975 29.5799 154.157 29.7135 153.292 29.8281C152.445 29.9427 151.439 30 150.273 30ZM147.058 21.3203H151.176C151.834 21.3203 152.314 21.1962 152.615 20.9479C152.934 20.6806 153.094 20.2031 153.094 19.5156C153.094 18.8472 153 18.322 152.812 17.9401C152.624 17.5582 152.314 17.2908 151.881 17.138C151.449 16.9661 150.885 16.8802 150.189 16.8802C149.399 16.8802 148.778 17.0043 148.327 17.2526C147.876 17.5009 147.547 17.9497 147.34 18.599C147.152 19.2292 147.058 20.1363 147.058 21.3203Z" fill="black"/>
<path d="M163.787 29.9141C162.791 29.9141 161.954 29.7422 161.277 29.3984C160.618 29.0547 160.12 28.52 159.782 27.7943C159.462 27.0686 159.302 26.1042 159.302 24.901V8H162.8V24.4141C162.8 25.1016 162.866 25.6363 162.997 26.0182C163.148 26.4002 163.355 26.6771 163.618 26.849C163.881 27.0017 164.201 27.1068 164.577 27.1641L165.846 27.3359V29.9141H163.787Z" fill="black"/>
<path d="M172.41 29.9141C171.413 29.9141 170.576 29.7422 169.899 29.3984C169.241 29.0547 168.742 28.52 168.404 27.7943C168.084 27.0686 167.924 26.1042 167.924 24.901V8H171.422V24.4141C171.422 25.1016 171.488 25.6363 171.62 26.0182C171.77 26.4002 171.977 26.6771 172.24 26.849C172.504 27.0017 172.823 27.1068 173.2 27.1641L174.469 27.3359V29.9141H172.41Z" fill="black"/>
<path d="M176.065 29.8568V17.942H180.205C181.153 17.942 181.878 18.1909 182.379 18.6887C182.879 19.1757 183.13 19.9386 183.13 20.9775C183.13 21.4753 183.05 21.9136 182.89 22.2924C182.741 22.6603 182.538 22.9633 182.283 23.2014C182.027 23.4286 181.755 23.5856 181.467 23.6721C181.67 23.7154 181.888 23.802 182.123 23.9319C182.357 24.0509 182.581 24.224 182.794 24.4513C183.018 24.6677 183.199 24.9491 183.338 25.2954C183.476 25.6417 183.546 26.0583 183.546 26.5453C183.546 27.4002 183.412 28.0712 183.146 28.5582C182.89 29.0343 182.517 29.3698 182.027 29.5646C181.547 29.7594 180.983 29.8568 180.333 29.8568H176.065ZM176.992 29.0127H180.317C180.785 29.0127 181.19 28.9423 181.531 28.8016C181.883 28.6501 182.155 28.3904 182.347 28.0225C182.549 27.6437 182.65 27.1026 182.65 26.3992C182.65 25.9122 182.544 25.4956 182.331 25.1493C182.128 24.803 181.851 24.5433 181.499 24.3701C181.148 24.1862 180.753 24.0942 180.317 24.0942H176.992V29.0127ZM176.992 23.3312H180.285C180.839 23.3312 181.297 23.131 181.659 22.7306C182.032 22.3194 182.224 21.7729 182.235 21.0911C182.267 20.2362 182.086 19.641 181.691 19.3056C181.308 18.9593 180.807 18.7861 180.189 18.7861H176.992V23.3312Z" fill="black"/>
<path d="M185.587 29.8568V17.942H190.127C190.819 17.942 191.4 18.0665 191.869 18.3154C192.349 18.5643 192.737 18.943 193.036 19.4516C193.345 19.9494 193.569 20.5717 193.707 21.3184C193.846 22.0543 193.915 22.9146 193.915 23.8994C193.915 25.1223 193.771 26.1774 193.483 27.0648C193.206 27.9521 192.785 28.6393 192.221 29.1263C191.666 29.6133 190.968 29.8568 190.127 29.8568H185.587ZM186.514 29.0127H190.063C190.745 29.0127 191.299 28.8016 191.725 28.3796C192.151 27.9467 192.466 27.3461 192.668 26.5778C192.881 25.8094 192.988 24.9166 192.988 23.8994C192.988 22.9795 192.929 22.195 192.812 21.5457C192.706 20.8964 192.535 20.3715 192.301 19.9711C192.066 19.5599 191.762 19.2623 191.389 19.0783C191.027 18.8835 190.585 18.7861 190.063 18.7861H186.514V29.0127Z" fill="black"/>
<defs>
<clipPath id="clip0_1040_9288">
<rect width="60.915" height="43.622" fill="white"/>
</clipPath>
</defs>
</svg>
